HIERARCHY
ROOT hip
{
	OFFSET 0.000000 -13.901810 -0.736397
	CHANNELS 6 Xposition Yposition Zposition Zrotation Xrotation Yrotation
	JOINT abdomen
	{
		OFFSET 0.000000 13.901810 0.736397
		CHANNELS 3 Zrotation Xrotation Yrotation
		JOINT chest
		{
			OFFSET 0.000000 12.679672 -2.194560
			CHANNELS 3 Zrotation Xrotation Yrotation
			JOINT neck
			{
				OFFSET 0.000000 25.603203 -3.657600
				CHANNELS 3 Zrotation Xrotation Yrotation
				JOINT head
				{
					OFFSET 0.000000 8.046738 0.487680
					CHANNELS 3 Zrotation Xrotation Yrotation
					JOINT eyeBrow
					{
						OFFSET 0.000000 0.000000 0.000000
						CHANNELS 3 Zrotation Xrotation Yrotation
						End Site
						{
							OFFSET -3.285500 -9.559006 1.154119
						}
					}
					JOINT rEye
					{
						OFFSET -3.285256 8.567551 9.782740
						CHANNELS 3 Zrotation Xrotation Yrotation
						End Site
						{
							OFFSET 3.285500 -9.559006 1.154119
						}
					}
					JOINT lEye
					{
						OFFSET 3.285256 8.567551 9.782740
						CHANNELS 3 Zrotation Xrotation Yrotation
						End Site
						{
							OFFSET -0.009997 -15.081253 2.045429
						}
					}
					JOINT upperJaw
					{
						OFFSET -0.009997 3.050674 6.895308
						CHANNELS 3 Zrotation Xrotation Yrotation
						End Site
						{
							OFFSET 0.000000 -17.888092 -2.861608
						}
					}
					JOINT lowerJaw
					{
						OFFSET -0.011286 5.711960 3.551442
						CHANNELS 3 Zrotation Xrotation Yrotation
						JOINT tongueBase
						{
							OFFSET 0.011286 -5.468124 4.007598
							CHANNELS 3 Zrotation Xrotation Yrotation
							JOINT tongue01
							{
								OFFSET -0.009433 0.640335 0.227527
								CHANNELS 3 Zrotation Xrotation Yrotation
								JOINT tongue02
								{
									OFFSET -0.000210 0.715912 0.556443
									CHANNELS 3 Zrotation Xrotation Yrotation
									JOINT tongue03
									{
										OFFSET -0.000073 0.654694 0.675071
										CHANNELS 3 Zrotation Xrotation Yrotation
										JOINT tongue04
										{
											OFFSET -0.000043 0.543030 0.684240
											CHANNELS 3 Zrotation Xrotation Yrotation
											JOINT tongue05
											{
												OFFSET -0.000075 0.315277 0.359249
												CHANNELS 3 Zrotation Xrotation Yrotation
												JOINT tongueTip
												{
													OFFSET 0.000045 0.439911 0.529425
													CHANNELS 3 Zrotation Xrotation Yrotation
													End Site
													{
														OFFSET -14.874240 -3.901428 -0.487680
													}
												}
											}
										}
									}
								}
							}
						}
					}
				}
			}
			JOINT rCollar
			{
				OFFSET -3.169920 22.189461 -3.901440
				CHANNELS 3 Zrotation Xrotation Yrotation
				JOINT rShldr
				{
					OFFSET -11.704320 -0.487686 -0.243840
					CHANNELS 3 Zrotation Xrotation Yrotation
					JOINT rForeArm
					{
						OFFSET -29.748482 -2.438400 1.463040
						CHANNELS 3 Zrotation Xrotation Yrotation
						JOINT rHand
						{
							OFFSET -22.189442 -0.487671 12.435841
							CHANNELS 3 Zrotation Xrotation Yrotation
							JOINT rThumb1
							{
								OFFSET 0.487679 -0.243851 2.682240
								CHANNELS 3 Zrotation Xrotation Yrotation
								JOINT rThumb2
								{
									OFFSET -1.219193 -0.731537 3.901440
									CHANNELS 3 Zrotation Xrotation Yrotation
									JOINT rThumb3
									{
										OFFSET -2.099953 -0.994141 2.399971
										CHANNELS 3 Zrotation Xrotation Yrotation
										End Site
										{
											OFFSET 6.129883 -0.046326 -1.664919
										}
									}
								}
							}
							JOINT rIndex1
							{
								OFFSET -5.364479 0.975357 6.096000
								CHANNELS 3 Zrotation Xrotation Yrotation
								JOINT rIndex2
								{
									OFFSET -2.523994 -1.043396 2.682922
									CHANNELS 3 Zrotation Xrotation Yrotation
									JOINT rIndex3
									{
										OFFSET -1.190659 -1.543777 1.216082
										CHANNELS 3 Zrotation Xrotation Yrotation
										End Site
										{
											OFFSET 3.886322 -0.104126 -3.845263
										}
									}
								}
							}
							JOINT rMid1
							{
								OFFSET -6.339836 0.975357 4.145281
								CHANNELS 3 Zrotation Xrotation Yrotation
								JOINT rMid2
								{
									OFFSET -3.792198 -1.101196 2.453297
									CHANNELS 3 Zrotation Xrotation Yrotation
									JOINT rMid3
									{
										OFFSET -1.270653 -2.124588 1.194987
										CHANNELS 3 Zrotation Xrotation Yrotation
										End Site
										{
											OFFSET 3.789520 -1.188980 -6.481295
										}
									}
								}
							}
							JOINT rRing1
							{
								OFFSET -7.071358 -0.243851 2.682240
								CHANNELS 3 Zrotation Xrotation Yrotation
								JOINT rRing2
								{
									OFFSET -3.157478 -0.966843 1.280306
									CHANNELS 3 Zrotation Xrotation Yrotation
									JOINT rRing3
									{
										OFFSET -1.620323 -1.804672 1.094061
										CHANNELS 3 Zrotation Xrotation Yrotation
										End Site
										{
											OFFSET 4.264763 -2.660553 -8.736960
										}
									}
								}
							}
							JOINT rPinky1
							{
								OFFSET -7.071358 -0.975388 0.731520
								CHANNELS 3 Zrotation Xrotation Yrotation
								JOINT rPinky2
								{
									OFFSET -2.682236 -1.706879 0.975361
									CHANNELS 3 Zrotation Xrotation Yrotation
									JOINT rPinky3
									{
										OFFSET -0.768341 -1.582748 0.681190
										CHANNELS 3 Zrotation Xrotation Yrotation
										End Site
										{
											OFFSET 14.874240 -3.901428 -0.487680
										}
									}
								}
							}
						}
					}
				}
			}
			JOINT lCollar
			{
				OFFSET 3.169920 22.189461 -3.901440
				CHANNELS 3 Zrotation Xrotation Yrotation
				JOINT lShldr
				{
					OFFSET 11.704320 -0.487686 -0.243840
					CHANNELS 3 Zrotation Xrotation Yrotation
					JOINT lForeArm
					{
						OFFSET 29.748482 -2.438400 1.463040
						CHANNELS 3 Zrotation Xrotation Yrotation
						JOINT lHand
						{
							OFFSET 22.189442 -0.487671 12.435841
							CHANNELS 3 Zrotation Xrotation Yrotation
							JOINT lThumb1
							{
								OFFSET -0.487679 -0.243851 2.682240
								CHANNELS 3 Zrotation Xrotation Yrotation
								JOINT lThumb2
								{
									OFFSET 1.219193 -0.731537 3.901440
									CHANNELS 3 Zrotation Xrotation Yrotation
									JOINT lThumb3
									{
										OFFSET 2.099953 -0.994141 2.399971
										CHANNELS 3 Zrotation Xrotation Yrotation
										End Site
										{
											OFFSET -6.129883 -0.046326 -1.664919
										}
									}
								}
							}
							JOINT lIndex1
							{
								OFFSET 5.364479 0.975357 6.096000
								CHANNELS 3 Zrotation Xrotation Yrotation
								JOINT lIndex2
								{
									OFFSET 2.523994 -1.043396 2.682922
									CHANNELS 3 Zrotation Xrotation Yrotation
									JOINT lIndex3
									{
										OFFSET 1.190659 -1.543777 1.216082
										CHANNELS 3 Zrotation Xrotation Yrotation
										End Site
										{
											OFFSET -3.886322 -0.104126 -3.845263
										}
									}
								}
							}
							JOINT lMid1
							{
								OFFSET 6.339836 0.975357 4.145281
								CHANNELS 3 Zrotation Xrotation Yrotation
								JOINT lMid2
								{
									OFFSET 3.792198 -1.101196 2.453297
									CHANNELS 3 Zrotation Xrotation Yrotation
									JOINT lMid3
									{
										OFFSET 1.270653 -2.124588 1.194987
										CHANNELS 3 Zrotation Xrotation Yrotation
										End Site
										{
											OFFSET -3.789520 -1.188980 -6.481295
										}
									}
								}
							}
							JOINT lRing1
							{
								OFFSET 7.071358 -0.243851 2.682240
								CHANNELS 3 Zrotation Xrotation Yrotation
								JOINT lRing2
								{
									OFFSET 3.157478 -0.966843 1.280306
									CHANNELS 3 Zrotation Xrotation Yrotation
									JOINT lRing3
									{
										OFFSET 1.620323 -1.804672 1.094061
										CHANNELS 3 Zrotation Xrotation Yrotation
										End Site
										{
											OFFSET -4.264763 -2.660553 -8.736960
										}
									}
								}
							}
							JOINT lPinky1
							{
								OFFSET 7.071358 -0.975388 0.731520
								CHANNELS 3 Zrotation Xrotation Yrotation
								JOINT lPinky2
								{
									OFFSET 2.682236 -1.706879 0.975361
									CHANNELS 3 Zrotation Xrotation Yrotation
									JOINT lPinky3
									{
										OFFSET 0.768341 -1.582748 0.681190
										CHANNELS 3 Zrotation Xrotation Yrotation
										End Site
										{
											OFFSET -6.827520 -62.179199 -1.950720
										}
									}
								}
							}
						}
					}
				}
			}
		}
	}
	JOINT rThigh
	{
		OFFSET -9.022080 -2.435471 0.248717
		CHANNELS 3 Zrotation Xrotation Yrotation
		JOINT rShin
		{
			OFFSET 2.194561 -45.841919 -1.463040
			CHANNELS 3 Zrotation Xrotation Yrotation
			JOINT rFoot
			{
				OFFSET 0.975359 -42.428162 -3.657600
				CHANNELS 3 Zrotation Xrotation Yrotation
				JOINT rToe
				{
					OFFSET -1.950720 -11.216640 10.728961
					CHANNELS 3 Zrotation Xrotation Yrotation
					End Site
					{
						OFFSET 6.827520 -62.179199 -1.950720
					}
				}
			}
		}
	}
	JOINT lThigh
	{
		OFFSET 9.022080 -2.435471 0.248717
		CHANNELS 3 Zrotation Xrotation Yrotation
		JOINT lShin
		{
			OFFSET -2.194561 -45.841919 -1.463040
			CHANNELS 3 Zrotation Xrotation Yrotation
			JOINT lFoot
			{
				OFFSET -0.975359 -42.428162 -3.657600
				CHANNELS 3 Zrotation Xrotation Yrotation
				JOINT lToe
				{
					OFFSET 1.950720 -11.216640 10.728961
					CHANNELS 3 Zrotation Xrotation Yrotation
					End Site
					{
						OFFSET 2.304313 -3.592129 6.094805
					}
				}
			}
		}
	}
}
MOTION
Frames:	4
Frame Time:	0.0333333
-153.702316 -2.735010 36.093624 12.640336 -9.662251 -160.745117 13.077098 -5.752029 4.625959 8.045898 -14.336497 1.452189 12.506496 -1.976759 7.477058 -6.550687 -2.169769 10.372398 0.000000 0.000000 0.000000 0.000000 0.000000 0.000000 0.000000 0.000000 0.000000 0.000000 0.000000 0.000000 0.000000 0.000000 0.000000 0.000000 0.000000 0.000000 0.004202 18.999998 0.001473 0.001273 16.999998 0.000347 0.000292 6.000000 0.000088 -0.002360 -13.999998 -0.001126 0.000000 0.000000 0.000000 0.000000 0.000000 0.000000 10.067251 0.274752 10.454202 33.010677 -34.156384 -35.175320 -0.468758 0.673240 0.857425 3.775599 2.759637 1.545160 -4.136954 -2.017435 -16.166885 0.470301 1.006473 -0.869382 0.000000 0.000000 0.000000 -0.199600 1.377458 -3.793272 -20.610542 -13.848655 -6.660397 0.000000 0.000000 0.000000 -3.183709 -0.997526 -2.925639 -22.384190 -9.831594 -7.673540 0.000000 0.000000 0.000000 1.326077 3.874077 -10.519525 -25.267115 -3.987797 -10.509715 0.000000 0.000000 0.000000 -11.752882 9.480857 -22.738239 -27.543556 0.359745 -11.323718 0.000000 0.000000 0.000000 -10.067251 0.274752 -10.454202 -65.052490 -19.448011 30.557207 -2.094692 -2.770938 23.643532 -18.740858 13.832716 2.614407 4.136954 -2.017435 16.166885 -0.470301 1.006473 0.869382 0.000000 0.000000 0.000000 0.199600 1.377453 3.793260 20.610542 -13.848655 6.660397 0.000000 0.000000 0.000000 3.183710 -0.997526 2.925639 22.384190 -9.831594 7.673540 0.000000 0.000000 0.000000 -1.326076 3.874075 10.519519 25.267130 -3.987798 10.509722 0.000000 0.000000 0.000000 11.752882 9.480857 22.738239 27.543556 0.359745 11.323718 0.000000 0.000000 0.000000 16.081083 -14.693941 21.388802 -0.212580 18.790188 -1.280994 -20.239285 -26.225283 -16.979519 0.000000 0.000000 0.000000 32.549545 -29.057779 40.214558 0.000959 25.853285 -1.658948 13.478202 -26.671684 14.386339 0.000000 0.000000 0.000000 
-153.846115 -2.825154 36.104500 12.663635 -9.765088 -160.803024 13.231898 -5.786540 4.706000 7.726099 -14.428699 1.440080 12.468295 -1.937039 7.453548 -6.339899 -1.914289 10.335599 0.000000 0.000000 0.000000 0.000000 0.000000 0.000000 0.000000 0.000000 0.000000 0.000000 0.000000 0.000000 0.000000 0.000000 0.000000 0.000000 0.000000 0.000000 0.004202 18.999998 0.001473 0.001273 16.999998 0.000347 0.000292 6.000000 0.000088 -0.002360 -13.999998 -0.001126 0.000000 0.000000 0.000000 0.000000 0.000000 0.000000 10.067251 0.274752 10.454202 40.157906 -24.928740 -31.242149 -0.499389 0.690977 1.041481 2.143926 1.559977 1.049654 -4.136954 -2.017435 -16.166885 0.470301 1.006473 -0.869382 0.000000 0.000000 0.000000 -0.199600 1.377458 -3.793272 -20.610542 -13.848655 -6.660397 0.000000 0.000000 0.000000 -3.183709 -0.997526 -2.925639 -22.384190 -9.831594 -7.673540 0.000000 0.000000 0.000000 1.326077 3.874077 -10.519525 -25.267115 -3.987797 -10.509715 0.000000 0.000000 0.000000 -11.752882 9.480857 -22.738239 -27.543556 0.359745 -11.323718 0.000000 0.000000 0.000000 -10.067251 0.274752 -10.454202 -67.596336 -11.973781 28.732479 -2.139711 -3.045161 24.961985 -16.525904 12.222532 1.031255 4.136954 -2.017435 16.166885 -0.470301 1.006473 0.869382 0.000000 0.000000 0.000000 0.199600 1.377453 3.793260 20.610542 -13.848655 6.660397 0.000000 0.000000 0.000000 3.183710 -0.997526 2.925639 22.384190 -9.831594 7.673540 0.000000 0.000000 0.000000 -1.326076 3.874075 10.519519 25.267130 -3.987798 10.509722 0.000000 0.000000 0.000000 11.752882 9.480857 22.738239 27.543556 0.359745 11.323718 0.000000 0.000000 0.000000 16.088619 -14.923685 21.134733 -0.217635 19.053135 -1.305879 -20.212318 -26.232454 -16.970301 0.000000 0.000000 0.000000 33.046402 -29.467260 40.616947 0.021964 26.998867 -1.592008 12.783516 -26.487196 14.093414 0.000000 0.000000 0.000000 
-153.966949 -3.002538 36.107639 12.802185 -9.774630 -160.885880 13.615599 -5.752239 4.821700 7.335079 -14.518897 1.428510 12.419598 -1.846810 7.423338 -6.231808 -1.676310 10.293498 0.000000 0.000000 0.000000 0.000000 0.000000 0.000000 0.000000 0.000000 0.000000 0.000000 0.000000 0.000000 0.000000 0.000000 0.000000 0.000000 0.000000 0.000000 0.004202 18.999998 0.001473 0.001273 16.999998 0.000347 0.000292 6.000000 0.000088 -0.002360 -13.999998 -0.001126 0.000000 0.000000 0.000000 0.000000 0.000000 0.000000 10.067251 0.274752 10.454202 46.586895 -14.074941 -28.291628 -0.567291 0.719446 1.498801 0.466583 0.336033 0.346958 -4.136954 -2.017435 -16.166885 0.470301 1.006473 -0.869382 0.000000 0.000000 0.000000 -0.199600 1.377458 -3.793272 -20.610542 -13.848655 -6.660397 0.000000 0.000000 0.000000 -3.183709 -0.997526 -2.925639 -22.384190 -9.831594 -7.673540 0.000000 0.000000 0.000000 1.326077 3.874077 -10.519525 -25.267115 -3.987797 -10.509715 0.000000 0.000000 0.000000 -11.752882 9.480857 -22.738239 -27.543556 0.359745 -11.323718 0.000000 0.000000 0.000000 -10.067251 0.274752 -10.454202 -69.603378 -5.083795 27.558157 -2.159919 -3.318436 24.963354 -14.170935 10.488865 -0.283105 4.136954 -2.017435 16.166885 -0.470301 1.006473 0.869382 0.000000 0.000000 0.000000 0.199600 1.377453 3.793260 20.610542 -13.848655 6.660397 0.000000 0.000000 0.000000 3.183710 -0.997526 2.925639 22.384190 -9.831594 7.673540 0.000000 0.000000 0.000000 -1.326076 3.874075 10.519519 25.267130 -3.987798 10.509722 0.000000 0.000000 0.000000 11.752882 9.480857 22.738239 27.543556 0.359745 11.323718 0.000000 0.000000 0.000000 16.097364 -15.181509 20.848862 -0.224431 19.443304 -1.334415 -20.194689 -26.237143 -16.964272 0.000000 0.000000 0.000000 33.767429 -29.894028 40.926994 0.047456 28.331520 -1.516676 11.968881 -25.981833 13.718729 0.000000 0.000000 0.000000 
-154.046692 -3.251941 36.083836 13.093555 -9.640419 -160.992691 14.193398 -5.607998 4.924079 6.935308 -14.591697 1.415140 12.378699 -1.699079 7.388969 -6.225238 -1.430900 10.248399 0.000000 0.000000 0.000000 0.000000 0.000000 0.000000 0.000000 0.000000 0.000000 0.000000 0.000000 0.000000 0.000000 0.000000 0.000000 0.000000 0.000000 0.000000 0.004202 18.999998 0.001473 0.001273 16.999998 0.000347 0.000292 6.000000 0.000088 -0.002360 -13.999998 -0.001126 0.000000 0.000000 0.000000 0.000000 0.000000 0.000000 10.067251 0.274752 10.454202 51.543564 -3.898004 -26.638664 -0.688068 0.761060 2.335338 -0.748191 -0.543544 -0.286104 -4.136954 -2.017435 -16.166885 0.470301 1.006473 -0.869382 0.000000 0.000000 0.000000 -0.199600 1.377458 -3.793272 -20.610542 -13.848655 -6.660397 0.000000 0.000000 0.000000 -3.183709 -0.997526 -2.925639 -22.384190 -9.831594 -7.673540 0.000000 0.000000 0.000000 1.326077 3.874077 -10.519525 -25.267115 -3.987797 -10.509715 0.000000 0.000000 0.000000 -11.752882 9.480857 -22.738239 -27.543556 0.359745 -11.323718 0.000000 0.000000 0.000000 -10.067251 0.274752 -10.454202 -71.110825 0.696404 26.890688 -2.177398 -3.554828 24.964460 -12.016835 8.889620 -1.170448 4.136954 -2.017435 16.166885 -0.470301 1.006473 0.869382 0.000000 0.000000 0.000000 0.199600 1.377453 3.793260 20.610542 -13.848655 6.660397 0.000000 0.000000 0.000000 3.183710 -0.997526 2.925639 22.384190 -9.831594 7.673540 0.000000 0.000000 0.000000 -1.326076 3.874075 10.519519 25.267130 -3.987798 10.509722 0.000000 0.000000 0.000000 11.752882 9.480857 22.738239 27.543556 0.359745 11.323718 0.000000 0.000000 0.000000 16.102304 -15.399633 20.519791 -0.230984 19.894602 -1.352350 -20.144135 -26.250572 -16.946976 0.000000 0.000000 0.000000 34.476440 -30.269691 40.646126 0.074048 29.618870 -1.438894 11.113000 -25.037086 13.289551 0.000000 0.000000 0.000000 
